<svg width="54" height="24" viewBox="0 0 54 24" fill="none" xmlns="http://www.w3.org/2000/svg">
<rect x="0.5" y="0.5" width="53" height="23" rx="3.5" fill="#EE6FA6"/>
<rect x="0.5" y="0.5" width="53" height="23" rx="3.5" stroke="#D9D9D9"/>
<path d="M10.6 14.764H20.44V15.592H10.6V14.764ZM15.004 12.448H15.988V15.112H15.004V12.448ZM11.8 6.88H19.216V10.168H12.808V12.34H11.824V9.376H18.232V7.696H11.8V6.88ZM11.824 11.92H19.468V12.736H11.824V11.92ZM22.7071 7.228H29.6911V8.044H22.7071V7.228ZM21.6391 14.524H31.4431V15.352H21.6391V14.524ZM29.1511 7.228H30.1351V8.32C30.1351 8.776 30.1271 9.264 30.1111 9.784C30.1031 10.296 30.0711 10.864 30.0151 11.488C29.9591 12.112 29.8631 12.816 29.7271 13.6L28.7191 13.492C28.8631 12.756 28.9631 12.08 29.0191 11.464C29.0831 10.848 29.1191 10.28 29.1271 9.76C29.1431 9.24 29.1511 8.76 29.1511 8.32V7.228ZM40.5741 6.088H41.5701V14.008H40.5741V6.088ZM34.5981 15.88H41.9061V16.696H34.5981V15.88ZM34.5981 13.204H35.5941V16.156H34.5981V13.204ZM35.7501 6.844C36.2941 6.844 36.7781 6.956 37.2021 7.18C37.6261 7.404 37.9621 7.72 38.2101 8.128C38.4581 8.528 38.5821 8.988 38.5821 9.508C38.5821 10.028 38.4581 10.492 38.2101 10.9C37.9621 11.3 37.6261 11.616 37.2021 11.848C36.7781 12.072 36.2941 12.184 35.7501 12.184C35.2141 12.184 34.7301 12.072 34.2981 11.848C33.8741 11.616 33.5381 11.3 33.2901 10.9C33.0421 10.492 32.9181 10.028 32.9181 9.508C32.9181 8.988 33.0421 8.528 33.2901 8.128C33.5381 7.72 33.8741 7.404 34.2981 7.18C34.7301 6.956 35.2141 6.844 35.7501 6.844ZM35.7501 7.708C35.3981 7.708 35.0821 7.784 34.8021 7.936C34.5221 8.088 34.2981 8.3 34.1301 8.572C33.9701 8.844 33.8901 9.156 33.8901 9.508C33.8901 9.868 33.9701 10.184 34.1301 10.456C34.2981 10.72 34.5221 10.928 34.8021 11.08C35.0821 11.232 35.3981 11.308 35.7501 11.308C36.1021 11.308 36.4181 11.232 36.6981 11.08C36.9861 10.928 37.2101 10.72 37.3701 10.456C37.5301 10.184 37.6101 9.868 37.6101 9.508C37.6101 9.156 37.5301 8.844 37.3701 8.572C37.2101 8.3 36.9861 8.088 36.6981 7.936C36.4181 7.784 36.1021 7.708 35.7501 7.708Z" fill="white"/>
</svg>
