<?xml version="1.0" encoding="utf-8"?>
<!-- Generator: Adobe Illustrator 16.0.0, SVG Export Plug-In . SVG Version: 6.00 Build 0)  -->
<!DOCTYPE svg PUBLIC "-//W3C//DTD SVG 1.1//EN" "http://www.w3.org/Graphics/SVG/1.1/DTD/svg11.dtd">
<svg version="1.1" id="레이어_1" xmlns="http://www.w3.org/2000/svg" xmlns:xlink="http://www.w3.org/1999/xlink" x="0px"
	 y="0px" width="226.667px" height="33px" viewBox="0 27 226.667 33" enable-background="new 0 27 226.667 33" xml:space="preserve"
	>
<g>
	<path fill="#003C61" enable-background="new    " d="M93.162,49.129c0.753,0,1.362-0.61,1.362-1.361v-2.172
		c0-0.752-0.608-1.361-1.362-1.361h-2.17c-0.752,0-1.361,0.609-1.361,1.361v2.172c0,0.751,0.609,1.361,1.361,1.361H93.162z"/>
	<path fill="#003C61" enable-background="new    " d="M3.447,44.107c-0.762-0.312-1.28-0.418-1.28-1.142
		c0-0.589,0.554-1.038,1.66-1.626l3.805-2.076c0.346-0.208,0.659-0.311,0.901-0.311c0.519,0,0.587,0.414,0.621,1.141l0.105,1.834
		c1.695-1.869,3.39-2.8,5.259-2.8c1.831,0,3.181,0.898,4.286,2.73c1.524-1.832,2.906-2.73,4.637-2.73
		c2.733,0,4.428,1.727,5.396,5.428l1.004,3.84c0.657,2.559,1.072,4.118,1.764,4.705c0.59,0.519,1.349,0.69,1.349,1.522
		c0,0.76-0.657,1.141-1.971,1.141H25.55c-1.349,0-2.006-0.242-2.006-1.141c0-0.52,0.276-0.796,0.762-1.145
		c0.623-0.413,1.21-0.587,1.21-1.208c0-0.659-0.31-2.524-1.177-5.501c-0.76-2.698-1.349-4.012-2.835-4.012
		c-1.382,0-2.387,1.176-2.387,3.182v5.568c0,0.833,0.206,1.314,0.831,1.73c0.656,0.449,1.28,0.52,1.28,1.385
		c0,0.656-0.485,1.141-1.315,1.141H13.65c-0.793,0-1.279-0.449-1.279-1.141c0-0.865,0.589-0.936,1.246-1.385
		c0.589-0.416,0.796-0.897,0.796-1.73v-5.464c0-2.18-0.832-3.355-2.213-3.355c-1.523,0-3.01,1.556-3.01,3.251v5.568
		c0,0.833,0.208,1.314,0.795,1.73c0.658,0.449,1.279,0.52,1.279,1.385c0,0.691-0.519,1.141-1.313,1.141H3.516
		c-0.795,0-1.281-0.449-1.281-1.141c0-0.865,0.623-0.936,1.281-1.385c0.586-0.416,0.761-0.897,0.761-1.73v-5.949
		C4.277,44.693,4.207,44.416,3.447,44.107"/>
	<path fill="#003C61" enable-background="new    " d="M33.775,47.807c0-2.317,0.829-4.428,2.455-6.086
		c1.729-1.8,3.805-2.63,6.467-2.63c2.388,0,4.878,0.9,6.676,2.457c2.182,1.868,3.287,4.254,3.287,7.057
		c0,4.531-3.493,7.575-9.097,7.575C37.372,56.179,33.775,52.892,33.775,47.807 M40.138,49.918c1.212,2.525,2.595,3.77,4.325,3.77
		c1.73,0,2.905-1.383,2.905-3.699c0-1.455-0.45-3.355-1.488-5.398c-1.105-2.145-2.835-3.355-4.288-3.355
		c-1.626,0-2.733,1.35-2.733,3.6C38.858,46.355,39.273,48.153,40.138,49.918"/>
	<path fill="#003C61" enable-background="new    " d="M55.833,44.107c-0.761-0.312-1.278-0.418-1.278-1.142
		c0-0.521,0.621-1.073,1.765-1.694l3.7-2.007c0.347-0.208,0.657-0.311,0.9-0.311c0.519,0,0.588,0.414,0.622,1.141l0.105,2.007
		c1.417-2.042,2.56-2.973,4.391-2.973c2.355,0,4.082,1.831,4.984,5.428l0.967,3.84c0.623,2.456,0.969,4.014,1.662,4.705
		c0.518,0.519,1.278,0.69,1.278,1.487c0,0.829-0.587,1.176-1.833,1.176h-5.292c-1.315,0-1.938-0.242-1.938-1.141
		c0-0.52,0.242-0.796,0.727-1.145c0.589-0.413,1.211-0.587,1.211-1.208c0-0.659-0.311-2.524-1.142-5.501
		c-0.761-2.698-1.347-4.012-2.802-4.012c-1.349,0-2.282,1.141-2.282,3.182v5.568c0,0.833,0.208,1.314,0.795,1.73
		c0.657,0.449,1.28,0.52,1.28,1.385c0,0.691-0.52,1.141-1.313,1.141h-6.435c-0.796,0-1.28-0.449-1.28-1.141
		c0-0.865,0.623-0.936,1.28-1.385c0.587-0.416,0.762-0.897,0.762-1.73v-5.949C56.665,44.693,56.593,44.416,55.833,44.107"/>
	<path fill="#003C61" enable-background="new    " d="M75.749,42.377c-0.762,0-1.143-0.276-1.143-0.865s0.381-0.898,0.796-1.384
		l4.64-5.466c0.726-0.865,1.071-1.453,1.521-1.453c0.727,0,0.865,0.587,0.865,1.868v4.427h4.876c0.45,0,0.588,0.072,0.588,0.555
		c0,1.386-0.377,2.213-1.14,2.213h-4.29v8.338c0,1.593,0.241,2.317,1.521,2.317c1.038,0,2.25-1.314,3.182-1.314
		c0.588,0,1.002,0.415,1.002,1.005c0,1.521-2.383,3.562-6.054,3.562c-2.801,0-4.98-1.763-4.98-3.32c0-0.588,0.379-1.487,0.379-2.837
		v-7.645H75.749z"/>
	<path fill="#003C61" enable-background="new    " d="M97.408,35.424c-0.692-0.278-1.209-0.382-1.209-1.074
		c0-0.45,0.552-0.933,1.658-1.486l3.566-1.835c0.347-0.173,0.622-0.274,0.899-0.274c0.448,0,0.587,0.309,0.587,1.002v8.958
		c1.176-1.106,2.456-1.587,4.081-1.587c1.938,0,3.907,0.827,5.432,2.317c1.8,1.726,2.663,3.804,2.663,6.398
		c0,4.808-3.216,8.232-7.056,8.232c-1.729,0-3.392-0.622-5.085-1.903l-2.803,1.627c-0.448,0.276-0.83,0.449-1.209,0.449
		c-0.657,0-0.867-0.346-0.867-1.072V36.738C98.064,35.942,97.893,35.63,97.408,35.424 M106.091,52.72
		c2.318,0,4.395-2.663,4.395-6.399c0-2.906-1.696-4.705-3.912-4.705c-2.525,0-3.837,1.834-3.837,5.466
		C102.737,50.817,103.877,52.72,106.091,52.72"/>
	<path fill="#003C61" enable-background="new    " d="M127.875,53.135c1.142,0,2.248-0.345,3.147-0.898
		c1.144-0.729,1.835-1.282,2.353-1.282c0.45,0,0.796,0.312,0.796,0.798c0,0.484-0.382,1.14-1.141,1.832
		c-1.8,1.626-4.36,2.595-6.954,2.595c-5.431,0-9.236-3.7-9.236-8.648c0-2.351,0.865-4.393,2.595-6.019
		c1.661-1.556,3.874-2.421,6.054-2.421c2.731,0,4.844,0.968,6.469,3.009c1.107,1.385,1.592,2.838,1.592,3.357
		c0,0.379-0.275,0.482-1.006,0.726l-9.408,3.079C123.896,51.786,125.558,53.135,127.875,53.135 M127.15,45.905
		c0.551-0.173,0.829-0.485,0.829-0.831c0-1.693-1.522-3.7-3.391-3.7c-1.487,0-2.594,1.278-2.594,3.284
		c0,0.762,0.207,1.662,0.551,2.839L127.15,45.905z"/>
	<path fill="#003C61" enable-background="new    " d="M136.542,36.011c-0.727-0.276-1.175-0.414-1.175-1.072
		c0-0.449,0.448-0.865,1.381-1.419l3.979-2.457c0.312-0.208,0.621-0.31,0.898-0.31c0.518,0,0.657,0.31,0.657,1.003v19.718
		c0,0.83,0.209,1.314,0.796,1.729c0.622,0.448,1.278,0.587,1.278,1.419c0,0.691-0.518,1.141-1.313,1.141h-6.471
		c-0.794,0-1.314-0.449-1.314-1.141c0-0.832,0.658-0.971,1.283-1.419c0.586-0.415,0.793-0.899,0.793-1.729V37.36
		C137.335,36.496,137.231,36.289,136.542,36.011"/>
	<path fill="#003C61" enable-background="new    " d="M147.347,36.011c-0.725-0.276-1.176-0.414-1.176-1.072
		c0-0.449,0.451-0.865,1.386-1.419l3.976-2.457c0.312-0.208,0.624-0.31,0.9-0.31c0.52,0,0.658,0.31,0.658,1.003v19.718
		c0,0.83,0.208,1.314,0.796,1.729c0.623,0.448,1.28,0.587,1.28,1.419c0,0.691-0.52,1.141-1.314,1.141h-6.47
		c-0.796,0-1.314-0.449-1.314-1.141c0-0.832,0.658-0.971,1.278-1.419c0.59-0.415,0.798-0.899,0.798-1.729V37.36
		C148.145,36.496,148.041,36.289,147.347,36.011"/>
</g>
<g enable-background="new    ">
	<path fill="#003C61" d="M166.702,40.402h2.494v7.504h0.064l6.02-7.504h2.773l-4.902,6.127l5.719,9.719h-2.773l-4.471-7.762
		l-2.43,2.988v4.773h-2.494V40.402z"/>
	<path fill="#003C61" d="M180.097,50.335c0-3.935,2.645-6.214,5.568-6.214s5.568,2.279,5.568,6.214s-2.645,6.192-5.568,6.192
		S180.097,54.27,180.097,50.335z M188.696,50.335c0-2.493-1.16-4.171-3.031-4.171c-1.85,0-3.01,1.678-3.01,4.171
		c0,2.516,1.16,4.171,3.01,4.171C187.536,54.506,188.696,52.851,188.696,50.335z"/>
	<path fill="#003C61" d="M194.565,44.423h2.021l0.193,2.128h0.064c0.84-1.525,2.086-2.43,3.354-2.43
		c0.582,0,0.969,0.086,1.334,0.259l-0.451,2.149c-0.408-0.129-0.709-0.193-1.184-0.193c-0.967,0-2.127,0.667-2.859,2.537v7.375
		h-2.473V44.423z"/>
	<path fill="#003C61" d="M202.716,50.335c0-3.827,2.645-6.214,5.396-6.214c3.139,0,4.836,2.258,4.836,5.59
		c0,0.495-0.064,0.969-0.129,1.27h-7.674c0.193,2.258,1.611,3.611,3.654,3.611c1.053,0,1.957-0.322,2.816-0.881l0.859,1.569
		c-1.096,0.731-2.451,1.247-3.998,1.247C205.274,56.527,202.716,54.248,202.716,50.335z M210.8,49.26
		c0-2.021-0.926-3.203-2.645-3.203c-1.484,0-2.795,1.14-3.031,3.203H210.8z"/>
	<path fill="#003C61" d="M215.12,53.108c0-2.536,2.15-3.849,7.074-4.386c-0.021-1.376-0.516-2.58-2.258-2.58
		c-1.248,0-2.408,0.559-3.418,1.204l-0.926-1.677c1.227-0.773,2.881-1.549,4.773-1.549c2.945,0,4.301,1.871,4.301,5.01v7.117h-2.021
		l-0.193-1.355h-0.086c-1.076,0.925-2.344,1.635-3.764,1.635C216.562,56.527,215.12,55.193,215.12,53.108z M222.194,53.195v-2.903
		c-3.506,0.409-4.688,1.312-4.688,2.645c0,1.161,0.795,1.634,1.85,1.634C220.388,54.57,221.226,54.076,222.194,53.195z"/>
</g>
</svg>
