<svg width="45" height="45" viewBox="0 0 45 45" fill="none" xmlns="http://www.w3.org/2000/svg">
<path d="M26.7874 22.5016L19.15 15.1901C19.0226 15.0681 18.8533 15 18.6772 15C18.5012 15 18.3319 15.0681 18.2044 15.1901L18.1962 15.1984C18.1342 15.2576 18.0849 15.3288 18.0511 15.4077C18.0174 15.4867 18 15.5717 18 15.6576C18 15.7435 18.0174 15.8285 18.0511 15.9075C18.0849 15.9864 18.1342 16.0576 18.1962 16.1168L25.3882 23.0014L18.1962 29.8832C18.1342 29.9424 18.0849 30.0136 18.0511 30.0925C18.0174 30.1715 18 30.2565 18 30.3424C18 30.4283 18.0174 30.5133 18.0511 30.5923C18.0849 30.6712 18.1342 30.7424 18.1962 30.8016L18.2044 30.8099C18.3319 30.9319 18.5012 31 18.6772 31C18.8533 31 19.0226 30.9319 19.15 30.8099L26.7874 23.4984C26.8546 23.4341 26.9081 23.3568 26.9446 23.2711C26.9812 23.1855 27 23.0932 27 23C27 22.9068 26.9812 22.8145 26.9446 22.7289C26.9081 22.6432 26.8546 22.5659 26.7874 22.5016Z" fill="#4C2F48"/>
</svg>
