<svg width="45" height="45" viewBox="0 0 45 45" fill="none" xmlns="http://www.w3.org/2000/svg">
<path d="M18.2126 22.5016L25.85 15.1901C25.9774 15.0681 26.1467 15 26.3228 15C26.4988 15 26.6681 15.0681 26.7956 15.1901L26.8038 15.1984C26.8658 15.2576 26.9151 15.3288 26.9489 15.4077C26.9826 15.4867 27 15.5717 27 15.6576C27 15.7435 26.9826 15.8285 26.9489 15.9075C26.9151 15.9864 26.8658 16.0576 26.8038 16.1168L19.6118 23.0014L26.8038 29.8832C26.8658 29.9424 26.9151 30.0136 26.9489 30.0925C26.9826 30.1715 27 30.2565 27 30.3424C27 30.4283 26.9826 30.5133 26.9489 30.5923C26.9151 30.6712 26.8658 30.7424 26.8038 30.8016L26.7956 30.8099C26.6681 30.9319 26.4988 31 26.3228 31C26.1467 31 25.9774 30.9319 25.85 30.8099L18.2126 23.4984C18.1454 23.4341 18.0919 23.3568 18.0554 23.2711C18.0188 23.1855 18 23.0932 18 23C18 22.9068 18.0188 22.8145 18.0554 22.7289C18.0919 22.6432 18.1454 22.5659 18.2126 22.5016Z" fill="#4C2F48"/>
</svg>
