<svg width="8" height="5" viewBox="0 0 8 5" fill="none" xmlns="http://www.w3.org/2000/svg">
<path fill-rule="evenodd" clip-rule="evenodd" d="M4.30283 4.56651C4.19344 4.67586 4.0451 4.7373 3.89042 4.7373C3.73574 4.7373 3.58739 4.67586 3.478 4.56651L0.178085 1.26659C0.122371 1.21278 0.0779309 1.14841 0.047359 1.07724C0.0167871 1.00607 0.000695084 0.929529 2.20246e-05 0.852074C-0.000651035 0.774619 0.0141084 0.697807 0.043439 0.626117C0.0727695 0.554428 0.116084 0.489297 0.170855 0.434526C0.225625 0.379755 0.290755 0.336441 0.362445 0.307111C0.434134 0.27778 0.510948 0.263021 0.588402 0.263694C0.665857 0.264367 0.742402 0.280459 0.813571 0.311031C0.88474 0.341603 0.949108 0.386042 1.00292 0.441756L3.89042 3.32926L6.77792 0.441756C6.88794 0.335498 7.03529 0.276701 7.18823 0.27803C7.34118 0.279359 7.48749 0.340708 7.59565 0.448862C7.7038 0.557017 7.76515 0.703324 7.76648 0.856273C7.76781 1.00922 7.70901 1.15657 7.60275 1.26659L4.30283 4.56651Z" fill="#333333"/>
</svg>
