<svg width="10" height="8" viewBox="0 0 10 8" fill="none" xmlns="http://www.w3.org/2000/svg">
<path fill-rule="evenodd" clip-rule="evenodd" d="M9.77301 1.05578C9.91362 1.19642 9.9926 1.38715 9.9926 1.58603C9.9926 1.7849 9.91362 1.97563 9.77301 2.11628L4.15151 7.73778C4.07722 7.81208 3.98902 7.87103 3.89195 7.91124C3.79488 7.95146 3.69084 7.97216 3.58576 7.97216C3.48069 7.97216 3.37665 7.95146 3.27957 7.91124C3.1825 7.87103 3.0943 7.81208 3.02001 7.73778L0.227013 4.94528C0.15538 4.87609 0.0982438 4.79333 0.058937 4.70183C0.0196303 4.61033 -0.00105945 4.51191 -0.00192481 4.41233C-0.00279017 4.31274 0.0161862 4.21398 0.0538968 4.12181C0.0916075 4.02964 0.147297 3.9459 0.217717 3.87548C0.288136 3.80506 0.371875 3.74937 0.464047 3.71166C0.55622 3.67395 0.654979 3.65497 0.754564 3.65584C0.854149 3.6567 0.952563 3.67739 1.04407 3.7167C1.13557 3.75601 1.21833 3.81314 1.28751 3.88478L3.58551 6.18278L8.71201 1.05578C8.78166 0.986082 8.86436 0.930795 8.95539 0.893074C9.04642 0.855353 9.14398 0.835938 9.24251 0.835938C9.34105 0.835938 9.43861 0.855353 9.52964 0.893074C9.62066 0.930795 9.70336 0.986082 9.77301 1.05578Z" fill="white"/>
</svg>
