<svg width="10" height="11" viewBox="0 0 10 11" fill="none" xmlns="http://www.w3.org/2000/svg">
<path d="M1.11111 11C0.805556 11 0.544074 10.8924 0.326667 10.6771C0.109259 10.4619 0.00037037 10.2029 0 9.9V2.2C0 1.8975 0.108889 1.63863 0.326667 1.4234C0.544444 1.20817 0.805926 1.10037 1.11111 1.1H1.66667V0.550002C1.66667 0.394168 1.72 0.263635 1.82667 0.158402C1.93333 0.0531686 2.06519 0.000368563 2.22222 1.89655e-06C2.37926 -0.00036477 2.5113 0.0524353 2.61833 0.158402C2.72537 0.264369 2.77852 0.394902 2.77778 0.550002V1.1H7.22222V0.550002C7.22222 0.394168 7.27556 0.263635 7.38222 0.158402C7.48889 0.0531686 7.62074 0.000368563 7.77778 1.89655e-06C7.93481 -0.00036477 8.06685 0.0524353 8.17389 0.158402C8.28092 0.264369 8.33407 0.394902 8.33333 0.550002V1.1H8.88889C9.19444 1.1 9.45611 1.2078 9.67389 1.4234C9.89167 1.639 10.0004 1.89787 10 2.2V9.9C10 10.2025 9.8913 10.4615 9.67389 10.6771C9.45648 10.8927 9.19481 11.0004 8.88889 11H1.11111ZM1.11111 9.9H8.88889V4.4H1.11111V9.9ZM5 6.6C4.84259 6.6 4.71074 6.5472 4.60444 6.4416C4.49815 6.336 4.44481 6.20547 4.44444 6.05C4.44407 5.89453 4.49741 5.764 4.60444 5.6584C4.71148 5.5528 4.84333 5.5 5 5.5C5.15667 5.5 5.2887 5.5528 5.39611 5.6584C5.50352 5.764 5.55667 5.89453 5.55556 6.05C5.55444 6.20547 5.50111 6.33618 5.39556 6.44215C5.29 6.54812 5.15815 6.60073 5 6.6ZM2.77778 6.6C2.62037 6.6 2.48852 6.5472 2.38222 6.4416C2.27593 6.336 2.22259 6.20547 2.22222 6.05C2.22185 5.89453 2.27519 5.764 2.38222 5.6584C2.48926 5.5528 2.62111 5.5 2.77778 5.5C2.93444 5.5 3.06648 5.5528 3.17389 5.6584C3.2813 5.764 3.33444 5.89453 3.33333 6.05C3.33222 6.20547 3.27889 6.33618 3.17333 6.44215C3.06778 6.54812 2.93593 6.60073 2.77778 6.6ZM7.22222 6.6C7.06481 6.6 6.93296 6.5472 6.82667 6.4416C6.72037 6.336 6.66704 6.20547 6.66667 6.05C6.6663 5.89453 6.71963 5.764 6.82667 5.6584C6.9337 5.5528 7.06556 5.5 7.22222 5.5C7.37889 5.5 7.51093 5.5528 7.61833 5.6584C7.72574 5.764 7.77889 5.89453 7.77778 6.05C7.77667 6.20547 7.72333 6.33618 7.61778 6.44215C7.51222 6.54812 7.38037 6.60073 7.22222 6.6ZM5 8.8C4.84259 8.8 4.71074 8.7472 4.60444 8.6416C4.49815 8.536 4.44481 8.40547 4.44444 8.25C4.44407 8.09453 4.49741 7.964 4.60444 7.8584C4.71148 7.7528 4.84333 7.7 5 7.7C5.15667 7.7 5.2887 7.7528 5.39611 7.8584C5.50352 7.964 5.55667 8.09453 5.55556 8.25C5.55444 8.40547 5.50111 8.53618 5.39556 8.64215C5.29 8.74812 5.15815 8.80073 5 8.8ZM2.77778 8.8C2.62037 8.8 2.48852 8.7472 2.38222 8.6416C2.27593 8.536 2.22259 8.40547 2.22222 8.25C2.22185 8.09453 2.27519 7.964 2.38222 7.8584C2.48926 7.7528 2.62111 7.7 2.77778 7.7C2.93444 7.7 3.06648 7.7528 3.17389 7.8584C3.2813 7.964 3.33444 8.09453 3.33333 8.25C3.33222 8.40547 3.27889 8.53618 3.17333 8.64215C3.06778 8.74812 2.93593 8.80073 2.77778 8.8ZM7.22222 8.8C7.06481 8.8 6.93296 8.7472 6.82667 8.6416C6.72037 8.536 6.66704 8.40547 6.66667 8.25C6.6663 8.09453 6.71963 7.964 6.82667 7.8584C6.9337 7.7528 7.06556 7.7 7.22222 7.7C7.37889 7.7 7.51093 7.7528 7.61833 7.8584C7.72574 7.964 7.77889 8.09453 7.77778 8.25C7.77667 8.40547 7.72333 8.53618 7.61778 8.64215C7.51222 8.74812 7.38037 8.80073 7.22222 8.8Z" fill="#333333"/>
</svg>
