<svg width="10" height="8" viewBox="0 0 10 8" fill="none" xmlns="http://www.w3.org/2000/svg">
<path d="M1.25044 2.93777C1.2504 2.57519 1.34048 2.21829 1.51259 1.89916C1.68469 1.58003 1.93343 1.30868 2.23641 1.10953C2.5394 0.910374 2.88714 0.789656 3.24836 0.758232C3.60957 0.726807 3.97293 0.785663 4.30576 0.929504C4.63859 1.07335 4.93044 1.29766 5.15507 1.58228C5.3797 1.86689 5.53006 2.20288 5.59263 2.56002C5.6552 2.91716 5.62801 3.28425 5.51351 3.62828C5.39902 3.9723 5.2008 4.28248 4.93669 4.53089C5.43464 4.77264 5.86697 5.13085 6.19706 5.57518C6.52715 6.01951 6.74527 6.53686 6.83294 7.08339C6.84259 7.14421 6.84016 7.20634 6.82579 7.26621C6.81143 7.32609 6.78541 7.38256 6.74923 7.43238C6.71304 7.48221 6.6674 7.52442 6.6149 7.5566C6.5624 7.58878 6.50408 7.61031 6.44326 7.61996C6.38244 7.6296 6.32032 7.62717 6.26044 7.61281C6.20056 7.59844 6.14409 7.57242 6.09427 7.53624C6.04445 7.50005 6.00224 7.45441 5.97005 7.40191C5.93787 7.34941 5.91634 7.29109 5.90669 7.23027C5.81295 6.64296 5.5129 6.10831 5.06042 5.72233C4.60795 5.33635 4.03269 5.12432 3.43794 5.12432C2.8432 5.12432 2.26794 5.33635 1.81547 5.72233C1.36299 6.10831 1.06294 6.64296 0.969195 7.23027C0.95951 7.29109 0.937941 7.3494 0.905719 7.40189C0.873497 7.45437 0.831253 7.49999 0.781399 7.53615C0.731546 7.5723 0.675059 7.59829 0.615164 7.61261C0.555269 7.62694 0.493138 7.62933 0.43232 7.61964C0.371501 7.60996 0.313186 7.58839 0.260703 7.55617C0.208221 7.52395 0.162599 7.4817 0.126442 7.43185C0.090285 7.382 0.0643016 7.32551 0.0499751 7.26561C0.0356487 7.20572 0.0332598 7.14359 0.0429448 7.08277C0.130302 6.53628 0.348316 6.01896 0.678454 5.57479C1.00859 5.13061 1.44109 4.77272 1.93919 4.53152C1.7217 4.32694 1.54838 4.08 1.42993 3.8059C1.31148 3.53181 1.2504 3.23636 1.25044 2.93777ZM6.87544 2.00027C7.23858 2.00052 7.59383 2.10618 7.89808 2.30443C8.20232 2.50267 8.44248 2.78496 8.5894 3.11705C8.73631 3.44914 8.78367 3.81673 8.72572 4.17521C8.66777 4.53369 8.50701 4.86764 8.26295 5.13652C8.64358 5.32508 8.98178 5.58927 9.25688 5.91294C9.53197 6.23661 9.7382 6.61297 9.86294 7.01902C9.88772 7.09781 9.89121 7.18176 9.87305 7.26234C9.85489 7.34291 9.81574 7.41725 9.75957 7.4778C9.70339 7.53836 9.6322 7.58297 9.55321 7.60711C9.47422 7.63126 9.39025 7.63407 9.30982 7.61527C9.22941 7.59667 9.15533 7.55717 9.09508 7.50076C9.03483 7.44435 8.99054 7.37303 8.96669 7.29402C8.85452 6.93174 8.65033 6.60473 8.37407 6.3449C8.09781 6.08507 7.75891 5.9013 7.39044 5.81152C7.28809 5.78681 7.19704 5.72836 7.13196 5.6456C7.06688 5.56283 7.03156 5.46056 7.03169 5.35527V5.13527C7.03164 5.048 7.05595 4.96245 7.10188 4.88824C7.14782 4.81404 7.21356 4.75413 7.2917 4.71527C7.48117 4.62137 7.63333 4.46616 7.72347 4.27486C7.8136 4.08356 7.83642 3.86741 7.7882 3.66151C7.73998 3.45561 7.62357 3.27206 7.45787 3.14068C7.29217 3.00929 7.08691 2.93778 6.87544 2.93777C6.75112 2.93777 6.6319 2.88838 6.54399 2.80048C6.45608 2.71257 6.40669 2.59334 6.40669 2.46902C6.40669 2.3447 6.45608 2.22547 6.54399 2.13756C6.6319 2.04966 6.75112 2.00027 6.87544 2.00027ZM3.43794 1.68777C3.27148 1.68401 3.10595 1.71354 2.95105 1.77463C2.79616 1.83572 2.65504 1.92714 2.53596 2.04352C2.41689 2.1599 2.32226 2.2989 2.25765 2.45236C2.19303 2.60582 2.15973 2.77063 2.15969 2.93714C2.15964 3.10364 2.19287 3.26848 2.25741 3.42196C2.32195 3.57545 2.4165 3.7145 2.53551 3.83094C2.65453 3.94738 2.79561 4.03888 2.95047 4.10004C3.10533 4.16121 3.27086 4.19083 3.43732 4.18714C3.76392 4.17992 4.07472 4.04513 4.30318 3.81162C4.53164 3.57811 4.6596 3.26444 4.65969 2.93776C4.65977 2.61108 4.53196 2.29735 4.30361 2.06373C4.07527 1.8301 3.76454 1.69516 3.43794 1.68777Z" fill="#333333"/>
</svg>
