<svg width="13" height="13" viewBox="0 0 13 13" fill="none" xmlns="http://www.w3.org/2000/svg">
<path d="M8.46379 9.03218C7.54361 9.81977 6.37178 10.2517 5.16058 10.2499C4.15401 10.2499 3.17005 9.95138 2.33312 9.39216C1.49619 8.83295 0.843886 8.03811 0.45869 7.10816C0.0734942 6.17822 -0.0272907 5.15493 0.169081 4.16771C0.365452 3.18048 0.850159 2.27366 1.56191 1.56191C2.27366 0.850159 3.18048 0.365452 4.16771 0.169081C5.15493 -0.0272907 6.17822 0.0734942 7.10816 0.45869C8.03811 0.843886 8.83295 1.49619 9.39216 2.33312C9.95138 3.17005 10.2499 4.15401 10.2499 5.16058C10.2517 6.37178 9.81977 7.54361 9.03218 8.46379L12.2749 11.707C12.3143 11.7438 12.346 11.7881 12.368 11.8374C12.3899 11.8867 12.4017 11.9399 12.4027 11.9939C12.4036 12.0478 12.3937 12.1014 12.3735 12.1514C12.3533 12.2015 12.3232 12.2469 12.2851 12.2851C12.2469 12.3232 12.2015 12.3533 12.1514 12.3735C12.1014 12.3937 12.0478 12.4036 11.9939 12.4027C11.9399 12.4017 11.8867 12.3899 11.8374 12.368C11.7881 12.346 11.7438 12.3143 11.707 12.2749L8.46379 9.03218ZM9.44629 5.16058C9.44629 4.02393 8.99476 2.93385 8.19103 2.13012C7.38731 1.32639 6.29722 0.874863 5.16058 0.874863C4.02393 0.874863 2.93385 1.32639 2.13012 2.13012C1.32639 2.93385 0.874863 4.02393 0.874863 5.16058C0.874863 6.29722 1.32639 7.38731 2.13012 8.19103C2.93385 8.99476 4.02393 9.44629 5.16058 9.44629C6.29722 9.44629 7.38731 8.99476 8.19103 8.19103C8.99476 7.38731 9.44629 6.29722 9.44629 5.16058Z" fill="#333333"/>
</svg>
